<svg id="Слой_1" data-name="Слой 1" xmlns="http://www.w3.org/2000/svg" width="734.2" height="175.75" viewBox="0 0 734.2 175.75">
  <defs>
    <style>
      .cls-1 {
        fill: #bf2828;
      }

      .cls-1, .cls-2, .cls-3 {
        fill-rule: evenodd;
      }

      .cls-2 {
        fill: #913030;
      }

      .cls-3 {
        fill: #cb6640;
      }

      .cls-4 {
        fill: #fff;
      }
    </style>
  </defs>
  <g id="Слой_1-2" data-name="Слой_1">
    <polygon class="cls-1" points="167.27 0 705.26 0 734.2 175.75 167.27 175.75 167.27 0"/>
    <polygon class="cls-2" points="167.27 0 629.39 0 734.2 175.75 167.27 175.75 167.27 0"/>
    <polygon class="cls-3" points="0 0 556.74 0 734.2 175.75 0 175.75 0 0"/>
    <path class="cls-4" d="M160.73,113.27H148.47l-3.1-8.55H123.74l-3.18,8.55H108.31l19.51-50.45h13.47l19.44,50.45Zm-18.31-18-7.87-21.71-7.86,21.71Zm44.86,18.91q-11.5,0-19.18-7.3t-7.68-18.8q0-11.51,7.68-18.8T187.28,62q14.15,0,21.1,12.33l-9.23,4.54a13.86,13.86,0,0,0-4.88-5.26,12.66,12.66,0,0,0-7-2.08,15,15,0,0,0-11.35,4.69,16.57,16.57,0,0,0-4.46,11.88A16.57,16.57,0,0,0,175.93,100a15,15,0,0,0,11.35,4.69,12.71,12.71,0,0,0,7-2.05,13.39,13.39,0,0,0,4.88-5.29l9.23,4.46q-7.19,12.41-21.1,12.41Zm52,0q-11.49,0-19.17-7.3t-7.68-18.8q0-11.51,7.68-18.8T239.24,62q14.14,0,21.11,12.33l-9.23,4.54a13.94,13.94,0,0,0-4.88-5.26,12.67,12.67,0,0,0-7-2.08A15,15,0,0,0,227.9,76.2a16.54,16.54,0,0,0-4.47,11.88A16.54,16.54,0,0,0,227.9,100a15,15,0,0,0,11.34,4.69,12.72,12.72,0,0,0,7-2.05,13.46,13.46,0,0,0,4.88-5.29l9.23,4.46q-7.19,12.41-21.11,12.41Zm51.44,0q-11.42,0-18.87-7.38t-7.45-18.72q0-11.34,7.45-18.72T290.68,62q11.51,0,18.95,7.34t7.45,18.76q0,11.42-7.45,18.76t-18.95,7.34ZM279.6,100a15.48,15.48,0,0,0,22.2,0A17,17,0,0,0,306,88.08,17,17,0,0,0,301.8,76.2a15.48,15.48,0,0,0-22.2,0,17.15,17.15,0,0,0-4.2,11.88A17.15,17.15,0,0,0,279.6,100Zm55.79,13.31H324.65V62.82h23.6q7.94,0,12.44,4.65a16,16,0,0,1,4.5,11.61,16,16,0,0,1-4.54,11.57q-4.53,4.69-12.4,4.69H335.39Zm11.42-27.38A7.68,7.68,0,0,0,352.14,84a6.94,6.94,0,0,0,0-9.91,7.72,7.72,0,0,0-5.33-1.85H335.39V85.89Zm47.5,27.38H383.5v-41H368.75V62.82H409v9.45H394.31Zm31.92,0H415.87V62.82h10.74v32.6L450,62.82h11v50.45H450.29V79.46l-24.06,33.81Z" transform="translate(0.19 -0.21)"/>
  </g>
</svg>
